<svg width="76" height="48" viewBox="0 0 76 48" fill="none" xmlns="http://www.w3.org/2000/svg">
<path d="M22.5025 32.7324C23.2364 32.7324 23.7521 32.5241 24.0496 32.1076C24.3471 31.6911 24.4959 31.225 24.4959 30.7093V17.0828C24.4959 16.587 24.3471 16.1308 24.0496 15.7142C23.7521 15.2977 23.2364 15.0894 22.5025 15.0894H15.5405L15.5107 34.4878C15.5107 34.9241 15.3421 35.2712 15.005 35.5291C14.6678 35.787 14.2512 35.9159 13.7554 35.9159C12.5851 35.9159 12 35.4398 12 34.4878V13.8696C12 13.1555 12.1835 12.6795 12.5504 12.4415C12.9174 12.2035 13.3587 12.0845 13.8744 12.0845H23.2463C23.762 12.0845 24.2975 12.1936 24.8529 12.4117C25.4083 12.6299 25.9438 12.9076 26.4595 13.2448H26.4298C26.9455 13.6217 27.3421 14.1126 27.6198 14.7175C27.8975 15.3225 28.0364 16.0217 28.0364 16.8151V30.9473C28.0364 32.5539 27.5008 33.7539 26.4298 34.5473C25.914 34.9241 25.3835 35.2167 24.838 35.425C24.2926 35.6332 23.762 35.7374 23.2463 35.7374H18.2479C17.9107 35.7374 17.6479 35.5985 17.4595 35.3208C17.2711 35.0431 17.1769 34.6762 17.1769 34.22C17.1769 33.2283 17.6033 32.7324 18.4562 32.7324H22.5025Z" fill="#00B2DA"/>
<path d="M34.7965 23.9851C34.7965 24.6595 34.5684 25.2298 34.1122 25.6959C33.656 26.162 33.0907 26.3951 32.4163 26.3951C31.7419 26.3951 31.1766 26.162 30.7204 25.6959C30.2642 25.2298 30.0361 24.6595 30.0361 23.9851C30.0361 23.3108 30.2642 22.7703 30.7204 22.3042C31.1766 21.838 31.7419 21.605 32.4163 21.605C33.0907 21.605 33.656 21.838 34.1122 22.3042C34.5684 22.7703 34.7965 23.3306 34.7965 23.9851Z" fill="#FFA800"/>
<path d="M59.6559 13.1207L59.6261 13.1504C59.7451 12.714 59.9782 12.3967 60.3253 12.1983C60.6724 12 61.1335 11.9504 61.7088 12.0496C62.284 12.1488 62.6955 12.3273 62.9435 12.5851C63.1914 12.843 63.2459 13.2 63.1071 13.6562L57.7517 34.9884V34.9587C57.6526 35.2959 57.4294 35.5537 57.0823 35.7322C56.7352 35.9107 56.3732 36 55.9964 36C55.56 36 55.1484 35.9355 54.7616 35.8066C54.3749 35.6777 54.1319 35.4149 54.0327 35.0182L54.0625 35.0479L50.403 20.5289H49.5997L45.9699 35.0182C45.8707 35.3554 45.6228 35.6033 45.2261 35.762C44.8294 35.9207 44.4228 36 44.0063 36C43.4906 36 43.079 35.9256 42.7716 35.7769C42.4641 35.6281 42.2608 35.3653 42.1616 34.9884L42.1914 35.0182L36.836 13.6562C36.7368 13.2595 36.8261 12.9174 37.1038 12.6298C37.3815 12.3421 37.7782 12.1488 38.2939 12.0496C39.4046 11.8711 40.079 12.238 40.317 13.1504L40.2873 13.1207L41.6261 18.5058C41.8046 19.2198 41.9831 19.9488 42.1616 20.6926C42.3402 21.4364 42.5385 22.2298 42.7567 23.0727C42.9749 23.9157 43.2129 24.8331 43.4707 25.8248C43.7286 26.8165 44.0162 27.9273 44.3335 29.157L48.1418 13.0909C48.241 12.6545 48.4691 12.3669 48.8261 12.2281C49.1831 12.0893 49.5798 12.0198 50.0162 12.0198C50.4129 12.0198 50.7997 12.0942 51.1765 12.243C51.5534 12.3917 51.7914 12.6942 51.8906 13.1504L55.8178 29.0678L59.6559 13.1207Z" fill="#00B2DA"/>
</svg>
